<?xml version="1.0" standalone="no"?><!DOCTYPE svg PUBLIC "-//W3C//DTD SVG 1.1//EN" "http://www.w3.org/Graphics/SVG/1.1/DTD/svg11.dtd"><svg t="1730704683202" class="icon" viewBox="0 0 1024 1024" version="1.1" xmlns="http://www.w3.org/2000/svg" p-id="6119" xmlns:xlink="http://www.w3.org/1999/xlink" width="200" height="200"><path d="M926.34 616.33c0 90.72-49.83 131.47-111.28 131.47s-111.28-40.75-111.28-131.47 49.82-197.06 111.28-197.06 111.28 106.34 111.28 197.06zM269.78 882.87V434.64a80.06 80.06 0 0 1 39.5-69l107-62.92a80.09 80.09 0 0 1 81.18 0l107 62.92a80.08 80.08 0 0 1 39.5 69v448.23z" fill="#ecaaa2" p-id="6120" data-spm-anchor-id="a313x.search_index.0.i4.46d03a813iTRo2" class="selected"></path><path d="M635.87 925H183a32 32 0 0 1-32-32V357.2a109.23 109.23 0 0 1 53.28-93.55l149.66-88.78a108.71 108.71 0 0 1 111 0l149.66 88.78a109.23 109.23 0 0 1 53.28 93.55V893a32 32 0 0 1-32.01 32zM215 861h388.87V357.2a45 45 0 0 0-21.93-38.51l-149.66-88.78a44.75 44.75 0 0 0-45.69 0l-149.66 88.78A45 45 0 0 0 215 357.2z" fill="#bf6b54" p-id="6121" data-spm-anchor-id="a313x.search_index.0.i5.46d03a813iTRo2" class=""></path><path d="M507 419.29H311.85a32 32 0 0 1 0-64H507a32 32 0 0 1 0 64zM507 546H311.85a32 32 0 1 1 0-64H507a32 32 0 0 1 0 64zM771.17 779.24c-48.2 0-89.47-16.88-119.35-48.82-31.65-33.84-48.38-83.48-48.38-143.54 0-59.35 16.26-125.4 43.49-176.69 32.76-61.7 76.89-95.67 124.24-95.67s91.48 34 124.24 95.67c27.24 51.29 43.49 117.34 43.49 176.69 0 60.06-16.73 109.7-48.38 143.54-29.88 31.94-71.15 48.82-119.35 48.82z m0-400.72c-21.89 0-47.2 23.06-67.71 61.69-22.56 42.47-36 97.3-36 146.67 0 43.53 10.76 78 31.12 99.82 22.07 23.59 51.67 28.54 72.61 28.54s50.54-5 72.61-28.54c20.36-21.77 31.12-56.29 31.12-99.82 0-49.37-13.46-104.2-36-146.67-20.55-38.63-45.86-61.69-67.75-61.69z" fill="#bf6b54" p-id="6122" data-spm-anchor-id="a313x.search_index.0.i3.46d03a813iTRo2" class=""></path><path d="M771.17 924.2a32 32 0 0 1-32-32V647.57a32 32 0 0 1 64 0V892.2a32 32 0 0 1-32 32z" fill="#bf6b54" p-id="6123" data-spm-anchor-id="a313x.search_index.0.i9.46d03a813iTRo2" class=""></path><path d="M940.36 924.2h-857a32 32 0 0 1 0-64h857a32 32 0 0 1 0 64zM748.52 260.39a98.34 98.34 0 1 1 98.34-98.34 98.46 98.46 0 0 1-98.34 98.34z m0-136.68a38.34 38.34 0 1 0 38.34 38.34 38.38 38.38 0 0 0-38.34-38.34z" fill="#bf6b54" p-id="6124" data-spm-anchor-id="a313x.search_index.0.i7.46d03a813iTRo2" class=""></path><path d="M521.5 925h-205a32 32 0 0 1-32-32V750.07c0-74.17 60.34-134.5 134.5-134.5s134.5 60.33 134.5 134.5V893a32 32 0 0 1-32 32z m-173-64h141V750.07a70.5 70.5 0 0 0-141 0z" fill="#bf6b54" p-id="6125" data-spm-anchor-id="a313x.search_index.0.i8.46d03a813iTRo2" class=""></path></svg>