<?xml version="1.0" standalone="no"?><!DOCTYPE svg PUBLIC "-//W3C//DTD SVG 1.1//EN" "http://www.w3.org/Graphics/SVG/1.1/DTD/svg11.dtd"><svg t="1731325101666" class="icon" viewBox="0 0 1024 1024" version="1.1" xmlns="http://www.w3.org/2000/svg" p-id="3978" xmlns:xlink="http://www.w3.org/1999/xlink" width="32" height="32"><path d="M588.8 700.509091c34.909091 0 62.836364 11.636364 88.436364 37.236364 23.272727 25.6 37.236364 55.854545 37.236363 88.436363s-11.636364 65.163636-34.909091 88.436364c-23.272727 25.6-53.527273 37.236364-88.436363 37.236363s-65.163636-11.636364-88.436364-37.236363-34.909091-53.527273-34.909091-88.436364 11.636364-65.163636 37.236364-88.436363c18.618182-23.272727 48.872727-37.236364 83.781818-37.236364z m0 218.763636c23.272727 0 44.218182-9.309091 62.836364-25.6 16.290909-18.618182 25.6-39.563636 25.6-65.163636 0-25.6-9.309091-46.545455-25.6-65.163636-16.290909-18.618182-37.236364-27.927273-62.836364-27.927273-23.272727 0-44.218182 9.309091-62.836364 27.927273-16.290909 18.618182-25.6 39.563636-25.6 65.163636 0 25.6 9.309091 46.545455 25.6 65.163636 16.290909 16.290909 37.236364 25.6 62.836364 25.6zM949.527273 947.2h-37.236364v-114.036364c0-25.6-2.327273-44.218182-4.654545-53.527272-2.327273-9.309091-6.981818-18.618182-11.636364-23.272728-4.654545-6.981818-11.636364-11.636364-18.618182-13.963636-6.981818-2.327273-16.290909-4.654545-27.927273-4.654545s-20.945455 2.327273-30.254545 6.981818c-9.309091 4.654545-18.618182 11.636364-25.6 20.945454-6.981818 9.309091-11.636364 18.618182-16.290909 30.254546s-4.654545 32.581818-4.654546 62.836363v88.436364h-34.90909V707.490909h34.90909v34.909091c23.272727-27.927273 51.2-41.890909 83.781819-41.890909 16.290909 0 32.581818 4.654545 46.545454 13.963636 13.963636 9.309091 25.6 20.945455 32.581818 37.236364 6.981818 16.290909 11.636364 39.563636 11.636364 72.145454v123.345455zM774.981818 947.2c0 9.309091-9.309091 18.618182-18.618182 18.618182s-18.618182-9.309091-18.618181-18.618182M949.527273 947.2c0 9.309091-6.981818 18.618182-18.618182 18.618182s-18.618182-6.981818-18.618182-18.618182" fill="#ffffff" p-id="3979" data-spm-anchor-id="a313x.search_index.0.i1.148e3a811FjE5s" class="selected"></path><path d="M737.745455 707.490909c0-9.309091 9.309091-18.618182 18.618181-18.618182s18.618182 9.309091 18.618182 18.618182" fill="#ABABAB" p-id="3980"></path><path d="M230.4 956.509091c-4.654545 0-6.981818 0-11.636364-2.327273-9.309091-4.654545-13.963636-16.290909-11.636363-25.6l88.436363-363.054545H74.472727c-9.309091 0-18.618182-6.981818-20.945454-13.963637s-2.327273-18.618182 4.654545-25.6l512-484.072727c6.981818-6.981818 18.618182-9.309091 27.927273-2.327273 9.309091 4.654545 13.963636 16.290909 11.636364 25.6l-88.436364 328.145455 225.745454 2.327273c9.309091 0 18.618182 4.654545 20.945455 13.963636 4.654545 9.309091 2.327273 18.618182-4.654545 25.6l-79.127273 83.781818-107.054546 109.381818c-9.309091 9.309091-23.272727 9.309091-32.581818 0-9.309091-9.309091-9.309091-23.272727 0-32.581818l109.381818-109.381818 41.890909-44.218182-202.472727-2.327273c-6.981818 0-13.963636-2.327273-18.618182-9.30909-4.654545-4.654545-6.981818-13.963636-4.654545-20.945455l74.472727-276.945455L132.654545 518.981818H325.818182c6.981818 0 13.963636 2.327273 18.618182 9.309091 4.654545 4.654545 6.981818 13.963636 4.654545 20.945455L274.618182 861.090909l121.018182-121.018182c9.309091-9.309091 23.272727-9.309091 32.581818 0 9.309091 9.309091 9.309091 23.272727 0 32.581818l-179.2 179.2c-6.981818 2.327273-11.636364 4.654545-18.618182 4.654546z" fill="#ffffff" p-id="3981" data-spm-anchor-id="a313x.search_index.0.i0.148e3a811FjE5s" class="selected"></path></svg>