<?xml version="1.0" standalone="no"?><!DOCTYPE svg PUBLIC "-//W3C//DTD SVG 1.1//EN" "http://www.w3.org/Graphics/SVG/1.1/DTD/svg11.dtd"><svg t="1731325118782" class="icon" viewBox="0 0 1024 1024" version="1.1" xmlns="http://www.w3.org/2000/svg" p-id="4263" xmlns:xlink="http://www.w3.org/1999/xlink" width="32" height="32"><path d="M558.545455 693.527273c34.909091 0 65.163636 11.636364 88.436363 37.236363s37.236364 55.854545 37.236364 90.763637-11.636364 65.163636-34.909091 90.763636-53.527273 37.236364-88.436364 37.236364-65.163636-11.636364-88.436363-37.236364-37.236364-55.854545-37.236364-90.763636 11.636364-65.163636 37.236364-90.763637c20.945455-23.272727 51.2-37.236364 86.109091-37.236363z m0 221.090909c25.6 0 44.218182-9.309091 62.836363-25.6 16.290909-18.618182 25.6-39.563636 25.6-65.163637s-9.309091-46.545455-25.6-65.163636c-18.618182-18.618182-37.236364-27.927273-62.836363-27.927273-23.272727 0-44.218182 9.309091-62.836364 27.927273-16.290909 18.618182-25.6 39.563636-25.6 65.163636 0 25.6 9.309091 46.545455 25.6 65.163637 16.290909 16.290909 37.236364 25.6 62.836364 25.6zM814.545455 640c-4.654545-2.327273-6.981818 9.309091-11.636364 9.309091-9.309091-2.327273-16.290909-4.654545-20.945455-4.654546-6.981818 0-13.963636 2.327273-16.290909 6.981819-2.327273 4.654545-4.654545 13.963636-4.654545 25.6v23.272727h25.6v32.581818h-25.6v209.454546h-37.236364v-209.454546h-30.254545v-32.581818h30.254545v-27.927273c0-20.945455 4.654545-37.236364 11.636364-48.872727 6.981818-9.309091 20.945455-16.290909 37.236363-16.290909 9.309091 0 23.272727 2.327273 39.563637 6.981818l2.327273 25.6z m-53.527273 302.545455c0 9.309091-9.309091 18.618182-18.618182 18.618181s-18.618182-9.309091-18.618182-18.618181m62.836364-242.036364c9.309091 0 16.290909 6.981818 16.290909 16.290909s-6.981818 16.290909-16.290909 16.290909m27.927273-116.363636c9.309091 2.327273 13.963636 13.963636 9.30909 20.945454s-13.963636 13.963636-20.945454 9.309091m-109.381818 86.109091c-9.309091 0-16.290909-6.981818-16.290909-16.290909s6.981818-16.290909 16.290909-16.290909M949.527273 640c-4.654545-2.327273-6.981818 9.309091-11.636364 9.309091-9.309091-2.327273-16.290909-4.654545-20.945454-4.654546-6.981818 0-13.963636 2.327273-16.29091 6.981819-2.327273 4.654545-4.654545 13.963636-4.654545 25.6v23.272727h25.6v32.581818h-25.6v209.454546H861.090909v-209.454546h-30.254545v-32.581818H861.090909v-27.927273c0-20.945455 4.654545-37.236364 11.636364-48.872727 6.981818-9.309091 20.945455-16.290909 37.236363-16.290909 9.309091 0 23.272727 2.327273 39.563637 6.981818v25.6z m-51.2 302.545455c0 9.309091-9.309091 18.618182-18.618182 18.618181s-18.618182-9.309091-18.618182-18.618181m60.509091-242.036364c9.309091 0 16.290909 6.981818 16.290909 16.290909s-6.981818 16.290909-16.290909 16.290909m27.927273-116.363636c9.309091 2.327273 13.963636 13.963636 9.309091 20.945454-2.327273 9.309091-13.963636 13.963636-20.945455 9.309091m-107.054545 86.109091c-9.309091 0-16.290909-6.981818-16.290909-16.290909s6.981818-16.290909 16.290909-16.290909" fill="#ffffff" p-id="4264" data-spm-anchor-id="a313x.search_index.0.i1.5f3d3a812W3hMi" class="selected"></path><path d="M200.145455 961.163636c-4.654545 0-6.981818 0-11.636364-2.327272-9.309091-4.654545-13.963636-16.290909-11.636364-25.6l88.436364-363.054546H44.218182c-9.309091 0-18.618182-6.981818-20.945455-13.963636s0-18.618182 4.654546-25.6L542.254545 46.545455c6.981818-6.981818 18.618182-9.309091 27.927273-2.327273 9.309091 4.654545 13.963636 16.290909 11.636364 25.6l-88.436364 328.145454 225.745455 2.327273c9.309091 0 18.618182 4.654545 20.945454 13.963636 4.654545 9.309091 2.327273 18.618182-4.654545 25.6l-79.127273 83.781819-109.381818 111.709091c-9.309091 9.309091-23.272727 9.309091-32.581818 0-9.309091-9.309091-9.309091-23.272727 0-32.581819l109.381818-109.381818 41.890909-44.218182-202.472727-2.327272c-6.981818 0-13.963636-2.327273-18.618182-9.309091-4.654545-4.654545-6.981818-13.963636-4.654546-20.945455L514.327273 139.636364 102.4 523.636364h193.163636c6.981818 0 13.963636 2.327273 18.618182 9.309091 4.654545 4.654545 6.981818 13.963636 4.654546 20.945454l-74.472728 311.854546 121.018182-121.018182c9.309091-9.309091 23.272727-9.309091 32.581818 0 9.309091 9.309091 9.309091 23.272727 0 32.581818L216.436364 954.181818c-4.654545 4.654545-9.309091 6.981818-16.290909 6.981818z" fill="#ffffff" p-id="4265" data-spm-anchor-id="a313x.search_index.0.i0.5f3d3a812W3hMi" class="selected"></path></svg>