<?xml version="1.0" standalone="no"?><!DOCTYPE svg PUBLIC "-//W3C//DTD SVG 1.1//EN" "http://www.w3.org/Graphics/SVG/1.1/DTD/svg11.dtd"><svg t="1731325201546" class="icon" viewBox="0 0 1024 1024" version="1.1" xmlns="http://www.w3.org/2000/svg" p-id="5016" data-spm-anchor-id="a313x.search_index.0.i3.148e3a811FjE5s" xmlns:xlink="http://www.w3.org/1999/xlink" width="32" height="32"><path d="M334.392 577.24l353.704 0c36.16 0 71.528-29.872 71.528-66.024L759.624 312.352c0-36.16-35.368-71.528-71.528-71.528l-72.312 0c0-29.08-29.872-44.016-66.024-44.016l-77.816 0c-36.16 0-66.024 14.936-66.024 44.016L333.6 240.824c-36.16 0-71.528 34.584-71.528 71.528l0 198.864C262.08 547.368 297.448 577.24 334.392 577.24zM511.24 301.352c61.312 0 110.824 49.52 110.824 110.824s-49.52 110.824-110.824 110.824-110.824-49.52-110.824-110.824S449.936 301.352 511.24 301.352z" fill="#ffffff" p-id="5017" data-spm-anchor-id="a313x.search_index.0.i4.148e3a811FjE5s" class="selected"></path><path d="M511.24 411.392m-66.024 0a8.253 8.253 0 1 0 132.048 0 8.253 8.253 0 1 0-132.048 0Z" fill="#ffffff" p-id="5018" data-spm-anchor-id="a313x.search_index.0.i7.148e3a811FjE5s" class="selected"></path><path d="M898.744 586.672c-7.072-14.936-16.504-23.584-25.152-29.872-17.288-13.36-33.8-19.648-44.8-24.368-11.008-4.72-17.296-6.288-17.296-6.288s5.504 3.144 15.72 9.432c9.432 6.288 23.584 16.504 36.944 31.44 6.288 7.072 11.792 16.504 14.936 25.936 2.36 9.432 1.576 19.648-3.928 28.296-10.216 18.08-34.584 31.44-60.52 41.656-52.664 19.648-115.544 27.512-169.776 30.656-21.224 1.568-41.656 1.568-59.736 1.568l0 84.104c21.224-2.36 44.8-6.288 69.952-11.008 58.168-12.576 123.4-31.44 179.992-65.24 14.152-8.648 27.512-18.08 39.304-29.08 11.792-11 22.008-24.368 27.512-40.872C907.392 617.328 905.816 599.248 898.744 586.672z" fill="#ffffff" p-id="5019" data-spm-anchor-id="a313x.search_index.0.i6.148e3a811FjE5s" class="selected"></path><path d="M423.992 694.352c-14.144 0-29.08-0.784-44.8-1.568-54.232-3.144-117.112-10.216-169.776-29.872-25.936-9.432-50.304-23.584-61.312-40.872-5.504-8.648-7.072-18.08-3.928-28.296 2.36-9.432 7.864-18.864 14.152-25.936 12.576-14.936 26.728-24.368 36.944-31.44 9.432-6.288 15.72-9.432 15.72-9.432s-6.288 1.576-17.288 6.288c-11.008 4.72-26.728 11.008-44.8 24.368-8.648 7.072-18.08 15.72-24.368 28.296-6.288 12.576-7.864 30.656-2.36 46.376 5.504 15.72 16.504 29.08 28.296 40.872 11.008 11.008 24.368 20.44 38.512 29.08 56.592 33.8 121.832 52.664 180 65.24 18.864 3.928 37.728 7.072 55.024 9.432l0 50.304 102.184-88.032L423.992 651.12 423.992 694.352z" fill="#ffffff" p-id="5020" data-spm-anchor-id="a313x.search_index.0.i5.148e3a811FjE5s" class="selected"></path></svg>